<svg xmlns="http://www.w3.org/2000/svg" width="640" height="360" viewBox="0 0 640 360">
  <rect width="640" height="360" rx="24" fill="#f7faf9"/>
  <path d="M92 250 C158 226, 199 144, 271 169 C337 193, 361 96, 434 122 C498 145, 521 202, 556 160" fill="none" stroke="#cfd8e4" stroke-width="14" stroke-linecap="round"/>
  <path d="M92 250 C158 226, 199 144, 271 169 C337 193, 361 96, 434 122 C498 145, 521 202, 556 160" fill="none" stroke="#36a3a2" stroke-width="7" stroke-linecap="round"/>
  <circle cx="271" cy="169" r="38" fill="#fff" stroke="#ef6f6c" stroke-width="6"/>
  <circle cx="434" cy="122" r="34" fill="#fff" stroke="#ef6f6c" stroke-width="6"/>
  <path d="M255 169 l12 12 l23-28" fill="none" stroke="#2f5f8f" stroke-width="7" stroke-linecap="round" stroke-linejoin="round"/>
  <path d="M419 122 l12 12 l23-28" fill="none" stroke="#2f5f8f" stroke-width="7" stroke-linecap="round" stroke-linejoin="round"/>
  <text x="320" y="62" text-anchor="middle" font-family="Inter, Arial" font-size="24" font-weight="700" fill="#253047">Adaptive Dense Risk Prediction</text>
  <text x="320" y="310" text-anchor="middle" font-family="Inter, Arial" font-size="17" fill="#6a7384">Consistent feed-forward 3D reconstruction</text>
</svg>
