<svg xmlns="http://www.w3.org/2000/svg" width="640" height="360" viewBox="0 0 640 360">
  <rect width="640" height="360" rx="24" fill="#f7f8fb"/>
  <path d="M96 242 C170 154, 224 282, 306 190 S473 142, 548 92" fill="none" stroke="#d6dbe6" stroke-width="14" stroke-linecap="round"/>
  <path d="M108 244 C178 164, 230 267, 304 196 S462 152, 532 104" fill="none" stroke="#2f5f8f" stroke-width="7" stroke-linecap="round"/>
  <rect x="84" y="132" width="122" height="74" rx="16" fill="#fff" stroke="#cfd7e6"/>
  <rect x="171" y="132" width="122" height="74" rx="16" fill="#fff" stroke="#cfd7e6"/>
  <rect x="258" y="132" width="122" height="74" rx="16" fill="#fff" stroke="#cfd7e6"/>
  <rect x="345" y="132" width="122" height="74" rx="16" fill="#fff" stroke="#cfd7e6"/>
  <circle cx="112" cy="169" r="8" fill="#ef6f6c"/>
  <circle cx="228" cy="169" r="8" fill="#36a3a2"/>
  <circle cx="439" cy="169" r="8" fill="#ef6f6c"/>
  <path d="M112 169 L228 169 L439 169" stroke="#7856c8" stroke-width="5" stroke-linecap="round" stroke-dasharray="10 10"/>
  <text x="320" y="62" text-anchor="middle" font-family="Inter, Arial" font-size="24" font-weight="700" fill="#253047">Position Matters in the Overlap</text>
  <text x="320" y="310" text-anchor="middle" font-family="Inter, Arial" font-size="17" fill="#6a7384">Chunk alignment · overlap positions · long-sequence 3D reconstruction</text>
</svg>
